<svg xmlns="http://www.w3.org/2000/svg" width="26" height="26" viewBox="0 0 26 26">
  <g id="Group_16775" data-name="Group 16775" transform="translate(-851 -334)">
    <rect id="Rectangle_419" data-name="Rectangle 419" width="26" height="26" transform="translate(851 334)" fill="none"/>
    <g id="email" transform="translate(854 339)">
      <path id="Path_69" data-name="Path 69" d="M12.067,71.772a2,2,0,0,0,1.992,0h0L23.1,65.743a2.193,2.193,0,0,0-2.069-1.476H5.092a2.193,2.193,0,0,0-2.069,1.476l9.044,6.029h0Z" transform="translate(-2.903 -64.267)" fill="#5663fe"/>
      <path id="Path_70" data-name="Path 70" d="M11.817,141.163h0a3.187,3.187,0,0,1-3.313,0h0L0,135.494v10.2a2.192,2.192,0,0,0,2.189,2.189H18.131A2.192,2.192,0,0,0,20.32,145.7v-10.2Z" transform="translate(0 -132.667)" fill="#5663fe"/>
    </g>
  </g>
</svg>
