<svg xmlns="http://www.w3.org/2000/svg" width="26" height="26" viewBox="0 0 26 26">
  <g id="Group_16776" data-name="Group 16776" transform="translate(-854 -427)">
    <rect id="Rectangle_419" data-name="Rectangle 419" width="26" height="26" transform="translate(854 427)" fill="none"/>
    <path id="Path_6059" data-name="Path 6059" d="M70.954,8.28h-.4V6.41A6.374,6.374,0,0,0,64.38,0c-.094,0-.281,0-.375,0A6.374,6.374,0,0,0,57.83,6.41V8.28h-.4A1.3,1.3,0,0,0,56.313,9.7v9.378A1.3,1.3,0,0,0,57.431,20.5H70.954a1.3,1.3,0,0,0,1.118-1.425V9.7A1.3,1.3,0,0,0,70.954,8.28Zm-5.495,6.1v2.834a.6.6,0,0,1-.6.6H63.522a.6.6,0,0,1-.6-.6V14.38a1.716,1.716,0,0,1,1.08-2.92c.094,0,.281,0,.375,0a1.716,1.716,0,0,1,1.08,2.92Zm2.462-6.1H60.464V6.41a3.729,3.729,0,1,1,7.458,0V8.28Z" transform="translate(802.687 430)" fill="#5663fe"/>
  </g>
</svg>
